<svg width="14" height="8" viewBox="0 0 14 8" fill="none" xmlns="http://www.w3.org/2000/svg">
<path fill-rule="evenodd" clip-rule="evenodd" d="M0.227566 0.237161C0.373321 0.0914506 0.57098 0.00959487 0.777077 0.00959487C0.983174 0.00959487 1.18083 0.0914506 1.32659 0.237161L6.99502 5.90559L12.6635 0.237161C12.7351 0.162927 12.8209 0.103714 12.9157 0.0629798C13.0106 0.0222453 13.1126 0.000804071 13.2158 -9.27239e-05C13.319 -0.000989519 13.4213 0.0186759 13.5168 0.0577563C13.6123 0.0968368 13.6991 0.154549 13.7721 0.227527C13.8451 0.300504 13.9028 0.387285 13.9419 0.482805C13.981 0.578326 14.0006 0.680673 13.9997 0.783875C13.9988 0.887076 13.9774 0.989066 13.9367 1.08389C13.8959 1.17872 13.8367 1.26448 13.7625 1.33618L7.54453 7.55412C7.39878 7.69984 7.20112 7.78169 6.99502 7.78169C6.78892 7.78169 6.59126 7.69984 6.44551 7.55412L0.227566 1.33618C0.0818556 1.19043 0 0.992769 0 0.786672C0 0.580575 0.0818556 0.382916 0.227566 0.237161Z" fill="#D9D9D9"/>
</svg>
