<svg width="18" height="18" viewBox="0 0 18 18" fill="none" xmlns="http://www.w3.org/2000/svg">
<path d="M7.20008 -0.00012207C5.2905 -0.00012207 3.45913 0.758455 2.10885 2.10873C0.758577 3.45901 0 5.29038 0 7.19995C0 9.10953 0.758577 10.9409 2.10885 12.2912C3.45913 13.6415 5.2905 14.4 7.20008 14.4C9.10966 14.4 10.941 13.6415 12.2913 12.2912C13.6416 10.9409 14.4002 9.10953 14.4002 7.19995C14.4002 5.29038 13.6416 3.45901 12.2913 2.10873C10.941 0.758455 9.10966 -0.00012207 7.20008 -0.00012207Z" fill="#D9D9D9"/>
<path fill-rule="evenodd" clip-rule="evenodd" d="M17.7365 17.7366C17.5677 17.9054 17.3388 18.0001 17.1002 18.0001C16.8615 18.0001 16.6327 17.9054 16.4639 17.7366L13.3138 14.5866C13.1499 14.4169 13.0592 14.1895 13.0612 13.9535C13.0633 13.7175 13.1579 13.4918 13.3248 13.3249C13.4917 13.1581 13.7174 13.0634 13.9534 13.0614C14.1894 13.0593 14.4167 13.15 14.5865 13.314L17.7365 16.464C17.9052 16.6328 18 16.8617 18 17.1003C18 17.339 17.9052 17.5679 17.7365 17.7366Z" fill="#D9D9D9"/>
</svg>
